<svg width="350" height="350" viewBox="0 0 350 350" fill="none" xmlns="http://www.w3.org/2000/svg">
<circle cx="175.5" cy="175.5" r="162.5" fill="black"/>
<path d="M221.125 112.125C211.208 103.125 198.083 98.625 181.75 98.625C173.167 98.625 165.375 100.792 158.375 105.125C151.375 109.458 145.708 115.25 141.375 122.5C132.375 137.583 127.875 155.5 127.875 176.25C127.875 196.917 131.917 214.625 140 229.375C143.917 236.625 149.125 242.333 155.625 246.5C162.125 250.667 169.125 252.75 176.625 252.75C184.208 252.75 190.5 251.833 195.5 250C200.5 248.083 205.958 245.375 211.875 241.875V190.875H170.5V171.75H233.5V252.5C223.75 258.75 214.5 263.583 205.75 267C197 270.417 186.833 272.125 175.25 272.125C163.75 272.125 153.292 269.583 143.875 264.5C134.542 259.333 126.958 252.292 121.125 243.375C109.292 225.292 103.375 202.583 103.375 175.25C103.375 161.083 105.292 148 109.125 136C113.042 124 118.417 113.917 125.25 105.75C132.083 97.5 140.208 91.0833 149.625 86.5C159.042 81.9167 169.167 79.625 180 79.625C200.667 79.625 217.167 84.9167 229.5 95.5L221.125 112.125Z" fill="white"/>
</svg>
